<?xml version="1.0" encoding="utf-8"?>
<!-- Generator: Adobe Illustrator 23.0.4, SVG Export Plug-In . SVG Version: 6.00 Build 0)  -->
<svg version="1.1" xmlns="http://www.w3.org/2000/svg" xmlns:xlink="http://www.w3.org/1999/xlink" x="0px" y="0px"
	 viewBox="0 0 1500 500" style="enable-background:new 0 0 1500 500;" xml:space="preserve">
<style type="text/css">
	.st0{fill:url(#SVGID_1_);}
	.st1{fill:#EDEDED;}
	.st2{fill:#343434;}
	.st3{fill:#FFFFFF;}
	.st4{fill:url(#SVGID_2_);}
	.st5{fill:#DADADA;}
	.st6{fill:#3C783C;}
	.st7{fill:#458C34;}
	.st8{fill:#5AA247;}
	.st9{fill:#9A9999;}
	.st10{fill:#FFFFFF;stroke:#343434;stroke-miterlimit:10;}
	.st11{fill:url(#SVGID_3_);}
	.st12{fill:url(#SVGID_4_);}
	.st13{fill:url(#SVGID_5_);}
	.st14{fill:url(#SVGID_6_);}
</style>
<g id="Layer_2">
</g>
<g id="Layer_1">
	<path class="st1" d="M486.66,205.98c-1.52,0-2.81,0.98-3.28,2.34l-65.95-8.9v-83.7c1.59-0.32,2.79-1.73,2.79-3.42
		c0-1.93-1.56-3.49-3.49-3.49c-1.93,0-3.49,1.56-3.49,3.49c0,0.09,0.02,0.18,0.03,0.28L295.7,146.66l-71.73-44.94
		c0.14-0.38,0.23-0.79,0.23-1.22c0-1.93-1.56-3.49-3.49-3.49c-1.93,0-3.49,1.56-3.49,3.49c0,1.77,1.32,3.22,3.03,3.44l4.34,63.34
		L96.71,204.36c-0.58-1.11-1.74-1.87-3.08-1.87c-1.93,0-3.49,1.56-3.49,3.49c0,1.93,1.56,3.49,3.49,3.49c0.5,0,0.97-0.11,1.4-0.29
		l53.38,75.81c-0.59,0.63-0.96,1.46-0.96,2.39c0,1.13,0.55,2.12,1.38,2.76l-43.64,90.21c-0.28-0.07-0.56-0.12-0.86-0.12
		c-1.93,0-3.49,1.56-3.49,3.49c0,1.93,1.56,3.49,3.49,3.49c1.78,0,3.23-1.34,3.45-3.06l128.25-10.08c0.42,1.46,1.75,2.53,3.34,2.53
		c1.51,0,2.79-0.97,3.27-2.32l177.58,25.43c0.11,1.83,1.61,3.28,3.47,3.28c1.93,0,3.49-1.56,3.49-3.49c0-1.77-1.32-3.22-3.03-3.45
		l-3.6-50.77l32.97-5.19c0.5,1.32,1.76,2.27,3.26,2.27c1.93,0,3.49-1.56,3.49-3.49c0-1.93-1.56-3.49-3.49-3.49
		c-0.75,0-1.43,0.24-2,0.64l-35.12-33.24c0.33-0.53,0.53-1.16,0.53-1.84c0-0.88-0.33-1.67-0.87-2.28l65.8-86.05
		c0.46,0.22,0.97,0.36,1.52,0.36c1.93,0,3.49-1.56,3.49-3.49C490.15,207.54,488.58,205.98,486.66,205.98z M420.43,398.32
		l-176.36-25.25l128.62-20.25l48.04,44.86C420.61,397.88,420.51,398.1,420.43,398.32z M96.57,207.87l104.35,40.45l-47.69,36.44
		c-0.61-0.53-1.41-0.87-2.28-0.87c-0.5,0-0.97,0.11-1.4,0.29l-53.38-75.81C96.32,208.21,96.45,208.05,96.57,207.87z M416.02,200.64
		v38.13l-21.86,9.3l-22.77-51.6c0.58-0.42,1.02-1.01,1.27-1.69L416.02,200.64z M307.09,287.09c-0.01-0.14-0.01-0.28-0.04-0.41
		l54.92-23.37l51.55,36.24c-0.04,0.09-0.07,0.2-0.1,0.3L307.09,287.09z M240.86,369.95c-0.32-0.15-0.66-0.25-1.02-0.3l-5.59-81.58
		h65.96c0.12,0.61,0.42,1.16,0.82,1.61L240.86,369.95z M272.49,197.72l93.51-3.25c0.14,0.6,0.44,1.14,0.85,1.58l-32.41,46.2
		l-62.19-43.71C272.36,198.27,272.44,198,272.49,197.72z M367.99,196.84c0.43,0.19,0.9,0.29,1.39,0.29c0.26,0,0.5-0.03,0.74-0.08
		l22.76,51.58l-30.74,13.08l-26.56-18.67L367.99,196.84z M414.33,298.4l-50.85-35.74l29.96-12.75l21.26,48.19
		C414.57,298.19,414.45,298.29,414.33,298.4z M360.63,262.36l-54.12,23.04c-0.1-0.15-0.22-0.28-0.34-0.41l28.61-40.79L360.63,262.36
		z M234.16,286.68l-1.79-26.18l67.53,26.18H234.16z M416.02,297.51c-0.01,0-0.03,0.01-0.04,0.01l-21.25-48.16l21.3-9.06V297.51z
		 M365.95,193.07l-93.51,3.25c-0.37-1.53-1.74-2.68-3.39-2.68c-0.31,0-0.61,0.05-0.9,0.13l-16.46-32.9l43.8-12.7l70.63,44.25
		C366.04,192.63,365.98,192.84,365.95,193.07z M266.9,194.4c-0.81,0.64-1.34,1.62-1.34,2.73c0,0.55,0.14,1.05,0.36,1.51
		l-35.91,27.44l-3.96-57.78l24.28-7.04L266.9,194.4z M266.77,199.76c0.61,0.53,1.41,0.87,2.28,0.87c0.93,0,1.76-0.37,2.39-0.96
		l62.19,43.72l-28.61,40.79c-0.43-0.19-0.9-0.29-1.39-0.29c-1.23,0-2.31,0.64-2.93,1.61l-68.44-26.53l-2.14-31.2L266.77,199.76z
		 M230.82,258.4l-27.07-10.49l25.05-19.14L230.82,258.4z M230.93,259.94l1.83,26.73h-78.39c-0.06-0.29-0.16-0.56-0.29-0.82
		l48.37-36.96L230.93,259.94z M154.37,288.07h78.49l5.59,81.68c-0.37,0.1-0.73,0.26-1.04,0.47l-83.52-80.97
		C154.11,288.89,154.28,288.5,154.37,288.07z M242.63,371.88c-0.15-0.4-0.38-0.77-0.66-1.09l60.17-80.27
		c0.45,0.21,0.95,0.34,1.49,0.34c0.75,0,1.45-0.24,2.02-0.65l65.75,61.39L242.63,371.88z M306.6,289.19
		c0.14-0.22,0.24-0.46,0.33-0.72l106.33,12.75c0.14,1.64,1.39,2.94,3.01,3.16l2.81,39.72l-45.93,7.23L306.6,289.19z M417.42,297.51
		V239.7l66.37-28.25c0.07,0.11,0.16,0.2,0.25,0.3l-65.8,86.05C417.98,297.68,417.71,297.57,417.42,297.51z M483.19,209.71
		c0.01,0.16,0.02,0.31,0.05,0.46l-65.82,28.01v-37.35L483.19,209.71z M372.85,193.41c-0.06-0.94-0.49-1.77-1.15-2.36l43.91-75.46
		c0.14,0.05,0.27,0.1,0.41,0.13v83.52L372.85,193.41z M413.64,113.92c0.2,0.37,0.45,0.7,0.76,0.97l-43.91,75.46
		c-0.35-0.12-0.72-0.2-1.11-0.2c-0.99,0-1.89,0.42-2.52,1.09l-69.57-43.58L413.64,113.92z M293.91,147.18l-42.85,12.42l-28.2-56.37
		c0.13-0.1,0.26-0.21,0.37-0.33L293.91,147.18z M221.65,103.93L249.7,160l-23.74,6.88L221.65,103.93z M224.68,168.71l4,58.39
		l-26.46,20.21L97.07,206.56c0.03-0.19,0.06-0.38,0.06-0.58c0-0.09-0.02-0.18-0.03-0.28L224.68,168.71z M150.09,290.75
		c0.28,0.07,0.56,0.12,0.86,0.12c0.73,0,1.41-0.23,1.97-0.61l83.52,80.97c-0.27,0.43-0.45,0.92-0.51,1.45l-128.25,10.08
		c-0.21-0.73-0.64-1.35-1.23-1.8L150.09,290.75z M422.77,396.15c-0.39,0.11-0.76,0.28-1.08,0.51l-47.24-44.12l44.74-7.04
		L422.77,396.15z M417.66,304.28c0.38-0.11,0.74-0.27,1.06-0.49l35.12,33.24c-0.31,0.49-0.49,1.06-0.52,1.68l-32.86,5.17
		L417.66,304.28z"/>
	<linearGradient id="SVGID_1_" gradientUnits="userSpaceOnUse" x1="148.8828" y1="257.799" x2="432.6657" y2="257.799">
		<stop  offset="0" style="stop-color:#3C783C"/>
		<stop  offset="1" style="stop-color:#5AA247"/>
	</linearGradient>
	<path class="st0" d="M432.67,257.41c0-2.93-1.81-5.44-4.38-6.47c-3.12-57.5-47.52-103.72-102.84-107.09
		c-1.03-2.58-3.53-4.41-6.48-4.41c-2.94,0-5.45,1.83-6.48,4.41c-55.31,3.37-99.72,49.58-102.84,107.09
		c-1.69,0.68-3.06,2.01-3.79,3.68h-43.61c-0.7-1.61-1.99-2.9-3.6-3.6v-98.19c2.46-1.08,4.19-3.53,4.19-6.39
		c0-3.86-3.13-6.98-6.98-6.98s-6.98,3.13-6.98,6.98c0,2.86,1.73,5.31,4.19,6.39v98.19c-2.46,1.08-4.19,3.53-4.19,6.39
		c0,2.86,1.73,5.31,4.19,6.39v98.98c-2.46,1.08-4.19,3.53-4.19,6.39c0,3.86,3.13,6.98,6.98,6.98s6.98-3.13,6.98-6.98
		c0-2.86-1.73-5.31-4.19-6.39V263.8c1.61-0.7,2.9-1.99,3.6-3.6h43.61c0.73,1.67,2.09,2.99,3.79,3.68
		c3.11,57.42,47.39,103.57,102.59,107.07c0.79,2.99,3.49,5.21,6.73,5.21c3.24,0,5.94-2.22,6.73-5.21
		c55.2-3.5,99.47-49.65,102.59-107.07C430.85,262.84,432.67,260.34,432.67,257.41z M312.7,149.43c0.72,1.5,1.95,2.71,3.48,3.38
		v98.19c-1.61,0.7-2.9,1.99-3.6,3.6h-93.92c-0.67-1.54-1.89-2.78-3.41-3.5C218.27,196.54,260.31,152.7,312.7,149.43z M215.24,263.7
		c1.52-0.72,2.74-1.96,3.41-3.5h93.92c0.7,1.61,1.99,2.9,3.6,3.6v98.98c-1.27,0.56-2.33,1.48-3.07,2.63
		C260.53,362.35,218.27,318.41,215.24,263.7z M324.84,365.41c-0.74-1.15-1.81-2.08-3.07-2.63V263.8c2.46-1.08,4.19-3.53,4.19-6.39
		c0-2.86-1.73-5.31-4.19-6.39v-98.19c1.53-0.67,2.76-1.88,3.48-3.38c52.39,3.27,94.43,47.11,97.45,101.68c-2.36,1.12-4,3.51-4,6.29
		c0,2.79,1.64,5.17,4,6.29C419.67,318.41,377.42,362.35,324.84,365.41z"/>
	<g>
		<path class="st3" d="M521.46,199.05h66.55v-45.7c0-3.83,5.21-3.83,5.21,0v92.32c0,3.53-5.21,3.53-5.21,0v-42.02l-66.55-0.15v42.17
			c0,3.53-5.06,3.53-5.06,0v-92.32c0-3.83,5.06-3.83,5.06,0V199.05z"/>
		<path class="st3" d="M636.78,152.43c0-3.83,5.52-3.83,5.52,0v93.08c0,3.53-5.52,3.53-5.52,0V152.43z"/>
		<path class="st3" d="M727.41,249.65c-26.22-0.31-48.92-22.08-48.15-51.07c0.77-23.46,16.87-45.39,40.64-49.22
			c15.18-2.3,33.43,2.15,43.86,13.65c2.45,2.91-1.23,6.13-3.68,3.53c-9.35-10.43-25.76-14.26-39.41-12.11
			c-21.32,3.37-35.73,23.31-36.5,44.32c-0.61,25.61,19.78,45.39,43.4,45.85c13.34,0.15,27.45-5.67,35.12-16.87v-25.61h-32.66
			c-2.91,0-2.91-4.6,0-4.6h34.5c2.15,0,2.76,1.23,2.76,2.91v27.3c0,1.23-0.15,2.61-1.07,3.53
			C757.16,243.21,742.13,249.81,727.41,249.65z"/>
		<path class="st3" d="M814.05,199.05h66.55v-45.7c0-3.83,5.21-3.83,5.21,0v92.32c0,3.53-5.21,3.53-5.21,0v-42.02l-66.55-0.15v42.17
			c0,3.53-5.06,3.53-5.06,0v-92.32c0-3.83,5.06-3.83,5.06,0V199.05z"/>
		<path class="st3" d="M980.74,197.67c0.77-23.77,15.49-44.78,39.56-48.61c5.37-0.77,11.2-0.77,16.56,0
			c24.23,3.83,40.79,24.84,41.4,48.61c0.92,29.6-22.08,52.29-48.77,52.29C1002.97,249.96,979.97,227.26,980.74,197.67z
			 M985.95,197.82c-0.77,26.38,19.78,47.38,43.55,47.38c23.92,0,44.47-21.01,43.7-47.38c-0.61-21.47-15.34-40.48-37.11-43.86
			c-4.91-0.77-10.12-0.77-15.03,0C999.44,157.34,986.56,176.35,985.95,197.82z"/>
		<path class="st3" d="M1119.06,220.67l-13.65,27.14c-1.53,2.91-5.98,0.61-4.45-2.45l48.77-96.15c0.46-0.92,1.38-1.38,2.3-1.38
			c0.92,0,1.69,0.46,2.15,1.38l48.92,96.15c1.53,3.07-2.91,5.37-4.45,2.45L1185,220.67H1119.06z M1152.03,155.34l-30.67,60.73h61.19
			L1152.03,155.34z"/>
		<path class="st3" d="M1305.99,150.13c2.61-2.3,6.44,1.23,3.99,3.53l-45.7,40.49l48.31,50.45c2.76,2.45-1.38,5.83-3.68,3.37
			l-48.3-50.61l-20.4,18.1v30.82c0,1.38-1.07,2.45-2.61,2.45c-1.38,0-2.61-1.07-2.61-2.45v-94.16c0-1.38,1.23-2.61,2.61-2.61
			c1.53,0,2.61,1.23,2.61,2.61v57.35L1305.99,150.13z"/>
		<path class="st3" d="M1342.33,226.34c3.68,12.73,21.01,17.48,32.51,18.55c2.3,0.31,4.91,0.46,7.21,0.46
			c15.18,0,38.64-5.21,38.64-24.23c0-35.27-80.97-3.53-80.97-44.93c0-15.18,14.88-22.7,27.76-25.46c4.14-0.77,8.59-1.23,12.88-1.23
			c14.72,0,35.88,3.37,41.71,19.32c1.53,3.68-3.22,4.75-4.29,1.69c-5.21-14.41-24.23-16.41-37.27-16.41c-1.23,0-2.45,0.15-3.68,0.15
			c-11.04,0.77-26.99,5.21-30.98,16.87c-0.77,1.53-1.07,3.53-1.07,5.21c0,35.12,80.97,4.45,80.97,44.62
			c0,22.54-25.15,28.68-43.7,28.68c-15.64,0-39.41-4.29-44.32-22.08C1336.81,224.5,1341.41,223.12,1342.33,226.34z"/>
		<path class="st3" d="M554.85,340.13l38.4-52.71v80.31h-15.77v-32.51l-22.63,31.25l-22.68-31.25v32.51H516.4v-80.31L554.85,340.13z
			"/>
		<path class="st3" d="M690.17,289.07v15.72h-31.54v15.82h23.66v15.72h-23.66v15.82h31.54v15.67h-47.31v-78.76H690.17z"/>
		<path class="st3" d="M757.73,289.27c12.33,0,21.97,4.9,28.67,11.54c7.01,7.04,10.51,16.3,10.51,27.77
			c0,11.47-3.5,20.69-10.51,27.67c-7.72,7.66-17.28,11.49-28.67,11.49h-20.88v-78.41h20.88V289.27z M757.68,304.89h-5.11v47.12h5.26
			c14.15,0,23.36-9.39,23.36-23.56C781.19,314.41,771.81,304.89,757.68,304.89z"/>
		<path class="st3" d="M843.59,289.27h15.77v78.46h-15.77V289.27z"/>
		<path class="st3" d="M941.82,287.66l35.82,80.07h-17.08l-5.31-11.93h-26.87l-5.31,11.93h-17.04L941.82,287.66z M949.02,341.89
			l-7.16-16.6l-7.25,16.6H949.02z"/>
	</g>
</g>
</svg>
